<?xml version="1.0" encoding="UTF-8" standalone="no"?>
<svg xmlns="http://www.w3.org/2000/svg" xmlns:xlink="http://www.w3.org/1999/xlink" width="48" height="48">
  <defs>
    <linearGradient id="j">
      <stop offset="0" stop-color="#fff"/>
      <stop offset="1" stop-color="#fff" stop-opacity="0"/>
    </linearGradient>
    <linearGradient id="i">
      <stop offset="0" stop-color="#c4a000"/>
      <stop offset="1" stop-color="#fce94f"/>
    </linearGradient>
    <linearGradient id="d" x1="68.175" x2="74.587" y1="21.425" y2="27.837" gradientUnits="userSpaceOnUse">
      <stop offset="0" stop-color="#babdb6"/>
      <stop offset="1" stop-color="#eeeeec"/>
    </linearGradient>
    <radialGradient id="c" cx="165.061" cy="23.333" r="7.285" gradientTransform="matrix(1 0 0 1.0103 0 -.16)" gradientUnits="userSpaceOnUse">
      <stop offset="0" stop-color="#ef3535"/>
      <stop offset="0" stop-color="#c91a1a"/>
      <stop offset="1" stop-color="#ff4c4c"/>
    </radialGradient>
    <linearGradient id="a" x1="292.972" x2="296.94" y1="4.759" y2="10.711" gradientUnits="userSpaceOnUse">
      <stop offset="0" stop-color="#eeeeec"/>
      <stop offset="1" stop-color="#fff"/>
    </linearGradient>
    <radialGradient id="g" cx="165.061" cy="23.333" r="7.285" gradientTransform="matrix(1 0 0 1.0103 0 -.16)" gradientUnits="userSpaceOnUse">
      <stop offset="0" stop-color="#ef3535"/>
      <stop offset="1" stop-color="#a40000" stop-opacity="0"/>
    </radialGradient>
    <linearGradient id="b">
      <stop offset="0" stop-color="#e2e2e2"/>
      <stop offset="1" stop-color="#d8d8d8"/>
    </linearGradient>
    <linearGradient id="e">
      <stop offset="0" stop-color="#df2a2a"/>
      <stop offset="1" stop-color="#df2a2a" stop-opacity="0"/>
    </linearGradient>
    <linearGradient id="f">
      <stop offset="0" stop-color="#9a0c00"/>
      <stop offset="1" stop-color="#9a0c00" stop-opacity="0"/>
    </linearGradient>
    <linearGradient id="h">
      <stop offset="0"/>
      <stop offset="1" stop-opacity="0"/>
    </linearGradient>
    <linearGradient id="n" x1="292.972" x2="296.94" y1="4.759" y2="10.711" gradientTransform="matrix(-4.12776 0 0 4.1366 2003.489 504.25)" gradientUnits="userSpaceOnUse" xlink:href="#a"/>
    <linearGradient id="o" x1="20.288" x2="24.326" y1="6.46" y2="23.943" gradientTransform="translate(759.024 516.155)" gradientUnits="userSpaceOnUse" xlink:href="#b"/>
    <linearGradient id="p" x1="294.595" x2="297.185" y1="12.188" y2="13.34" gradientUnits="userSpaceOnUse" xlink:href="#c"/>
    <linearGradient id="q" x1="296.486" x2="296.529" y1="15.507" y2="9.877" gradientTransform="matrix(3.6379 0 0 3.47038 -297.092 500.148)" gradientUnits="userSpaceOnUse" xlink:href="#c"/>
    <linearGradient id="r" x1="292.972" x2="296.94" y1="4.759" y2="10.711" gradientTransform="matrix(4.05343 0 0 4.1366 -416.511 504.25)" gradientUnits="userSpaceOnUse" xlink:href="#a"/>
    <linearGradient id="s" x1="20.288" x2="24.326" y1="6.46" y2="23.943" gradientTransform="translate(759.024 516.155)" gradientUnits="userSpaceOnUse" xlink:href="#b"/>
    <linearGradient id="t" x1="22.225" x2="24.19" y1="23.843" y2="22.861" gradientUnits="userSpaceOnUse" xlink:href="#d"/>
    <linearGradient id="u" x1="7.185" x2="25.152" y1="31.057" y2="50.775" gradientTransform="matrix(1.16188 0 0 .9925 756.593 516.42)" gradientUnits="userSpaceOnUse" xlink:href="#c"/>
    <linearGradient id="v" x1="13.825" x2="7.67" y1="40.069" y2="2.326" gradientTransform="matrix(1.16188 0 0 .9925 756.357 516.219)" gradientUnits="userSpaceOnUse" xlink:href="#c"/>
    <radialGradient id="w" cx="34.376" cy="37.5" r="8.389" fx="34.376" fy="37.5" gradientTransform="matrix(1 0 0 1.06038 759.024 513.856)" gradientUnits="userSpaceOnUse" xlink:href="#c"/>
    <linearGradient id="x" x1="298.479" x2="298.869" y1="13.6" y2="13.803" gradientUnits="userSpaceOnUse" xlink:href="#e"/>
    <linearGradient id="y" x1="298.479" x2="298.869" y1="13.6" y2="13.803" gradientUnits="userSpaceOnUse" xlink:href="#f"/>
    <linearGradient id="z" x1="296.762" x2="297.798" y1="12.012" y2="10.947" gradientTransform="translate(-294.155 499.308) scale(3.62444)" gradientUnits="userSpaceOnUse" xlink:href="#c"/>
    <linearGradient id="A" x1="39.62" x2="-3.533" y1="44.541" y2="-11.889" gradientTransform="matrix(1.16188 0 0 .9925 753.912 516.219)" gradientUnits="userSpaceOnUse" xlink:href="#g"/>
    <radialGradient id="B" cx="25.188" cy="41.625" r="18.063" fx="25.188" fy="41.625" gradientTransform="matrix(1 0 0 .32526 0 28.086)" gradientUnits="userSpaceOnUse" xlink:href="#h"/>
    <linearGradient id="l" x1="42.426" x2="32.35" y1="58.076" y2="16.357" gradientUnits="userSpaceOnUse" xlink:href="#i"/>
    <linearGradient id="m" x1="28.835" x2="52.132" y1="11.914" y2="70.073" gradientUnits="userSpaceOnUse" xlink:href="#j"/>
    <radialGradient id="k" cx="25.188" cy="41.625" r="18.063" fx="25.188" fy="41.625" gradientTransform="matrix(1 0 0 .32526 0 28.086)" gradientUnits="userSpaceOnUse" xlink:href="#h"/>
  </defs>
  <path fill="url(#k)" fill-rule="evenodd" d="M 43.25 41.625 A 18.0625 5.875 0 1 1 7.125,41.625 A 18.0625 5.875 0 1 1 43.25 41.625 z" color="#000" opacity=".267" style="marker:none" transform="matrix(.96886 0 0 .4652 6.097 24.903)"/>
  <path fill="url(#l)" fill-rule="evenodd" stroke="#c4a000" stroke-width="1.027" d="M 44.46875 3.6875 L 16.4375 44.46875 L 44.46875 44.46875 L 44.46875 3.6875 z M 38.53125 23.5 L 38.53125 37.5 L 29.5 37.5 L 38.53125 23.5 z"/>
  <path fill="none" stroke="url(#m)" d="M 43.5,43.5 L 43.5,6.8437499 L 18.375,43.4375 L 43.5,43.5 z" opacity=".639"/>
  <path fill="url(#n)" stroke="#888a85" stroke-linecap="round" stroke-linejoin="round" stroke-width="1.208" d="M 793.19801,517.78 C 793.40996,517.84854 793.61527,517.92466 793.82199,517.9975 C 794.47341,520.1945 797.49348,522.41622 796.34505,524.60413 C 792.51921,530.98452 788.72072,537.44957 784.92346,543.88027 C 784.17771,544.02717 783.42543,544.10718 782.67169,544.12496 C 781.0853,544.16517 779.45676,543.93047 777.95113,543.39089 C 783.002,534.83962 788.055,526.26948 793.19801,517.78 z" transform="translate(-628.864 -425.078) scale(.82793)"/>
  <path fill="url(#o)" d="M 793.31252,520.405 C 793.0814,520.71245 792.86291,521.27594 792.62649,521.56125 C 788.57964,528.31398 784.46448,535.05533 780.40268,541.78 C 780.34213,542.03312 779.58875,542.79229 780.39063,542.72296 C 781.50219,542.92084 782.66238,543.07357 783.77046,542.78 C 787.52945,536.56279 791.21634,530.29758 794.96675,524.07818 C 795.30922,523.6909 795.37586,523.15292 795.0161,522.7662 C 794.48609,521.94959 793.94916,521.09148 793.40607,520.31125 L 793.33551,520.38196 L 793.31252,520.405 z" transform="translate(-628.864 -425.078) scale(.82793)"/>
  <path fill="url(#p)" stroke="#9a0c00" stroke-linecap="round" stroke-linejoin="round" stroke-width=".34" d="M297.044 12.3L296.399 13.385 295.133 14.719 294.732 13.673 295.747 11.96 297.044 12.3z" transform="matrix(3.0119 0 0 2.87321 -874.834 -10.993)"/>
  <path fill="url(#q)" d="M 779.42995,543.12375 C 778.2076,543.61047 778.21593,545.15893 777.50497,546.08776 C 777.16265,546.80356 776.56118,547.43399 776.30495,548.18625 C 776.29527,548.70164 776.7529,549.54647 777.3362,549.0925 C 778.72118,547.94617 779.90057,546.55382 780.78042,544.96563 C 781.01279,544.4756 781.57618,544.07147 781.6487,543.56125 C 781.11013,542.99044 780.13588,543.02823 779.42995,543.12375 z" transform="translate(-628.864 -425.078) scale(.82793)"/>
  <path fill="url(#r)" stroke="#888a85" stroke-linecap="round" stroke-linejoin="round" stroke-width="1.208" d="M 771.9838,517.78 C 771.77567,517.84854 771.57405,517.92466 771.37105,517.9975 C 770.73137,520.1945 767.76569,522.41622 768.89343,524.60413 C 772.65038,530.98452 776.38046,537.44957 780.10934,543.88027 C 780.84166,544.02717 781.58039,544.10718 782.32055,544.12496 C 783.87838,544.16517 785.47759,543.93047 786.95611,543.39089 C 781.99619,534.83962 777.03419,526.26948 771.9838,517.78 z" transform="translate(-628.864 -425.078) scale(.82793)"/>
  <path fill="url(#s)" d="M 771.74337,520.405 C 771.36033,521.53168 770.29371,522.36096 770.02855,523.56125 C 773.73708,529.95536 777.4995,536.33038 781.20546,542.7175 C 782.40382,542.9758 783.6339,542.81066 784.81881,542.56125 C 784.63004,541.82081 784.08061,541.23032 783.78883,540.5317 C 779.89423,533.96117 775.96513,527.39787 772.11083,520.81125 C 772.09617,520.65964 771.89412,520.32712 771.74337,520.405 z" transform="translate(-628.864 -425.078) scale(.82793)"/>
  <path fill="url(#t)" d="M 24.190449 23.843431 A 0.98252523 0.98252523 0 1 1 22.225399,23.843431 A 0.98252523 0.98252523 0 1 1 24.190449 23.843431 z" color="#000" style="marker:none" transform="matrix(.81128 0 0 .82793 -.191 2.404)"/>
  <path fill="url(#u)" stroke="#a40000" d="M 776.72409,546.44193 C 779.9591,548.16858 780.21993,553.05485 777.30204,557.35629 C 774.38418,561.66025 769.39755,563.75147 766.16108,562.03242 C 762.92458,560.30577 762.66525,555.42203 765.58314,551.1206 C 768.49951,546.81917 773.48762,544.72794 776.72409,546.44193 z M 774.86897,549.18408 C 773.43244,548.42045 770.36151,549.7246 768.40263,552.61811 C 766.43972,555.51161 766.57973,558.53162 768.0149,559.29295 C 769.45005,560.06118 772.52369,558.75243 774.48257,555.85892 C 776.44683,552.96542 776.30546,549.94771 774.86897,549.18408 z" transform="translate(-628.864 -425.078) scale(.82793)"/>
  <path fill="url(#v)" d="M 773.3492,546.73829 C 771.42407,547.12551 769.71474,548.19231 768.30229,549.21953 C 767.55053,549.91443 767.05873,550.66945 766.38664,551.47374 C 764.67832,553.8258 763.96241,556.91717 765.31381,559.54341 C 765.93326,560.99651 767.95644,561.59085 769.68202,561.22254 C 771.13394,560.97408 772.36334,560.06147 773.49443,559.42364 C 774.41534,558.63286 775.04845,557.79713 775.82733,556.83236 C 777.63669,554.35796 778.61924,551.08369 777.1253,548.32008 C 776.4016,547.17795 774.89066,546.57329 773.3492,546.73829 z M 773.82121,547.69977 C 775.83772,547.95012 777.17819,549.73258 776.94376,551.42163 C 776.96453,553.70857 775.79774,555.86573 774.22061,557.65576 C 772.8034,559.05774 770.87199,560.38403 768.55645,560.29208 C 767.1976,560.28921 766.12388,559.37978 765.74063,558.33162 C 765.12399,555.79969 765.93535,553.06639 767.70683,550.99362 C 769.06507,549.47031 770.90168,548.10652 773.17434,547.75193 C 773.39003,547.73665 773.60522,547.70943 773.82121,547.69977 z" transform="translate(-628.864 -425.078) scale(.82793)"/>
  <path fill="url(#w)" stroke="#a40000" d="M 789.35546,546.44193 C 786.12045,548.16858 785.85963,553.05485 788.77752,557.35629 C 791.69538,561.66025 796.68201,563.75147 799.91848,562.03242 C 803.15498,560.30577 803.41431,555.42203 800.49642,551.1206 C 797.58005,546.81917 792.59193,544.72794 789.35546,546.44193 z M 791.21059,549.18408 C 792.64711,548.42045 795.71805,549.7246 797.67693,552.61811 C 799.63984,555.51161 799.49983,558.53162 798.06466,559.29295 C 796.62951,560.06118 793.55587,558.75243 791.59699,555.85892 C 789.63273,552.96542 789.77409,549.94771 791.21059,549.18408 z" transform="translate(-628.864 -425.078) scale(.82793)"/>
  <path fill="url(#x)" stroke="url(#y)" stroke-linecap="round" stroke-linejoin="round" stroke-width=".333" d="M296.956 12.3L297.6 13.385 298.867 14.719 299.268 13.673 298.254 11.96 296.956 12.3z" transform="translate(-872.402 -11.689) scale(3.00076)"/>
  <path fill="url(#z)" d="M 785.17995,544.0925 C 784.7532,544.29132 784.16314,544.29398 783.8362,544.5925 C 784.78622,545.99389 785.72611,547.50716 786.68708,548.80508 C 787.35563,549.55962 788.04289,550.3053 788.80495,550.9675 C 789.54023,549.57608 788.94011,547.90629 787.99245,546.78 C 787.38991,545.88031 787.16263,544.66704 786.1487,544.18625 C 785.84465,544.06784 785.49808,544.00837 785.17995,544.0925 z" transform="translate(-628.864 -425.078) scale(.82793)"/>
  <path fill="url(#A)" d="M 791.30379,546.60409 C 789.7834,546.83384 788.40884,547.68975 788.06334,548.99206 C 786.93219,551.38751 787.84846,554.10557 789.34312,556.21891 C 790.44504,557.56411 791.28319,559.14882 792.9827,559.99288 C 794.45335,560.9165 796.32384,561.88345 798.20034,561.29377 C 799.71366,560.86032 800.57101,559.6132 800.88051,558.32191 C 801.48494,556.01188 800.58482,553.64595 799.17355,551.68543 C 798.51487,550.77172 797.84056,549.80222 797.06023,548.99078 C 795.86567,548.08733 794.42231,547.33925 792.97139,546.75843 C 792.43729,546.64802 791.85616,546.52569 791.30379,546.60409 z M 791.73949,547.8137 C 793.4968,547.74692 794.974,548.55316 796.11586,549.58266 C 797.14816,550.55179 798.13752,551.38787 798.77837,552.58154 C 799.85556,554.40211 800.16623,556.5615 799.61848,558.54507 C 799.0901,559.86958 797.39232,560.51711 795.82736,560.16152 C 793.84548,559.93269 792.61002,558.4905 791.30079,557.35316 C 789.79504,555.92177 788.86017,553.87453 788.79021,551.87078 C 788.80432,550.85311 788.76374,549.69236 789.48835,548.83721 C 789.90063,548.29406 790.86836,547.78289 791.73949,547.8137 z" transform="translate(-628.864 -425.078) scale(.82793)"/>
  <path fill="url(#B)" fill-rule="evenodd" d="M 43.25 41.625 A 18.0625 5.875 0 1 1 7.125,41.625 A 18.0625 5.875 0 1 1 43.25 41.625 z" color="#000" opacity=".267" style="marker:none" transform="matrix(1.03992 0 0 .6782 -6.41 9.786)"/>
  <path fill="#2e3436" fill-opacity=".75" fill-rule="evenodd" stroke="#c4a000" stroke-linecap="square" d="M43.506026 40.61612L42.747596 40.61612M43.506026 36.61612L42.747596 36.61612M43.506026 32.61612L42.747596 32.61612M43.506026 28.61612L42.747596 28.61612M43.506026 24.61612L42.747596 24.61612M43.506026 20.61612L42.747596 20.61612M43.506026 16.61612L42.747596 16.61612M43.506026 12.61612L42.747596 12.61612"/>
</svg>
