<?xml version="1.0" encoding="UTF-8" standalone="no"?>
<svg xmlns="http://www.w3.org/2000/svg" xmlns:xlink="http://www.w3.org/1999/xlink" width="48" height="48">
  <defs>
    <linearGradient id="c">
      <stop offset="0" stop-color="#fff"/>
      <stop offset="1" stop-color="#fff" stop-opacity="0"/>
    </linearGradient>
    <linearGradient id="b">
      <stop offset="0"/>
      <stop offset="1" stop-opacity="0"/>
    </linearGradient>
    <linearGradient id="a">
      <stop offset="0" stop-color="#f5a108" stop-opacity="0"/>
      <stop offset="1" stop-color="#fefdc3" stop-opacity=".743"/>
    </linearGradient>
    <linearGradient id="e" x1="22.82" x2="12.85" y1="28.829" y2="12.239" gradientTransform="matrix(.94698 0 0 .48732 3.735 4.05)" gradientUnits="userSpaceOnUse" xlink:href="#a"/>
    <linearGradient id="f" x1="11.355" x2="6.358" y1="32.757" y2="6.1" gradientTransform="matrix(2.0123 0 0 1.07997 .835 -1.34)" gradientUnits="userSpaceOnUse" xlink:href="#a"/>
    <radialGradient id="d" cx="17.313" cy="25.531" r="9.688" fx="17.313" fy="25.531" gradientTransform="matrix(1 0 0 .35161 0 16.554)" gradientUnits="userSpaceOnUse" xlink:href="#b"/>
    <linearGradient id="g" x1="34.798" x2="17.445" y1="29.173" y2="-6.889" gradientTransform="translate(2.335 2.178) scale(.9034)" gradientUnits="userSpaceOnUse" xlink:href="#c"/>
  </defs>
  <path fill="url(#d)" d="M 27 25.53125 A 9.6875 3.40625 0 1 1 7.625,25.53125 A 9.6875 3.40625 0 1 1 27 25.53125 z" color="#000" opacity=".409" style="marker:none" transform="translate(-13.527 -17.29) scale(2.18291)"/>
  <path fill="#d4572d" fill-rule="evenodd" d="M 22.261974,36.308953 C 22.319549,36.222659 23.258748,37.420744 23.258748,37.420744 C 27.376818,32.94006 37.887671,24.568121 40.754981,17.585916 C 34.956432,24.017034 25.482321,34.363325 22.261974,36.308953 z"/>
  <path fill="url(#e)" fill-rule="evenodd" d="M 15.165635,7.4843984 C 10.367349,7.2482186 8.1319642,10.330635 6.9227946,13.262905 C 5.7228453,17.12432 7.4190682,24.417626 15.731363,23.862782 C 20.472655,23.862782 22.35715,19.000527 24.852467,17.738312 C 27.120242,16.880853 27.298725,16.80411 29.694665,16.80411 C 33.024276,16.80411 39.045484,14.394449 39.045485,12.003505 C 38.022041,10.084917 35.304933,6.6682093 30.312072,7.2505473 C 27.133914,7.6204422 24.127187,9.8922149 23.341787,11.022656 C 21.41782,9.3256958 18.961206,7.4843984 15.165635,7.4843984 z"/>
  <path fill="#c71807" fill-rule="evenodd" stroke="#820000" d="M 23.924948,9.0032158 C 32.227971,0.70019061 43.638272,8.3531236 43.563217,16.227494 C 43.494602,23.426038 38.008283,26.873511 24.225169,39.677567 C 9.7983996,27.766131 4.7153311,25.019309 4.7903867,16.478476 C 4.8654422,7.6374205 14.633621,1.0021667 23.924948,9.0032158 z"/>
  <path fill="url(#f)" fill-rule="evenodd" d="M 5.0781932,16.188619 C 4.8602033,23.368557 5.8728347,22.230971 7.702467,24.505643 C 9.5011547,26.741844 17.344378,25.334403 24.384714,18.69633 C 31.50914,11.97897 38.771295,15.781074 42.291599,12.040936 C 39.669103,7.5441045 31.483974,2.0956372 23.948408,9.6457059 C 14.291385,0.91854006 5.2961831,8.9288309 5.0781932,16.188619 z" opacity=".625"/>
  <path fill="none" stroke="url(#g)" d="M 24.022024,10.249144 C 31.916622,1.7157434 42.705886,8.8450321 42.635965,16.180607 C 42.572046,22.886598 37.061872,26.577281 24.221854,38.505233 C 10.782221,27.408824 5.647706,24.4507 5.717626,16.494266 C 5.787546,8.2581504 15.366447,1.7575067 24.022024,10.249144 z" opacity=".392"/>
</svg>
