<?xml version="1.0" encoding="UTF-8" standalone="no"?>
<!DOCTYPE svg PUBLIC "-//W3C//DTD SVG 1.1//EN" 
  "http://www.w3.org/Graphics/SVG/1.1/DTD/svg11.dtd">
<svg xmlns="http://www.w3.org/2000/svg" xmlns:xlink="http://www.w3.org/1999/xlink" width="48" height="48">
  <linearGradient id="a">
    <stop offset="0"/>
    <stop offset="1" stop-opacity="0"/>
  </linearGradient>
  <radialGradient id="b" cx="24.714285" cy="38.57143" r="19.714285" gradientTransform="matrix(1 0 0 .333333 0 25.71429)" gradientUnits="userSpaceOnUse" xlink:href="#a"/>
  <radialGradient id="c" cx="29.288071" cy="15.720984" r="8.90208" fx="29.158466" fy="15.755712" gradientUnits="userSpaceOnUse">
    <stop offset="0" stop-color="#fffcde"/>
    <stop offset=".64485979" stop-color="#f6e76a"/>
    <stop offset="1" stop-color="#ffb738"/>
  </radialGradient>
  <radialGradient id="f" cx="27.643423" cy="29.13448" r="7.75" gradientTransform="matrix(.00537727 -.373242 .791975 .01141123 1.832141 36.92856)" gradientUnits="userSpaceOnUse">
    <stop offset="0" stop-color="#fa9292"/>
    <stop offset="1" stop-color="#c00"/>
  </radialGradient>
  <radialGradient id="e" cx="47.651241" cy="24.283606" r="7.75" gradientTransform="matrix(-.00000053 -.317037 .972031 -.00000047 .99978 36.47238)" gradientUnits="userSpaceOnUse">
    <stop offset="0" stop-color="#fcc2c2"/>
    <stop offset="1" stop-color="#c00"/>
  </radialGradient>
  <radialGradient id="d" cx="24.319336" cy="36.861725" r="8.749811" gradientTransform="matrix(1.353561 .00000006 -.00000006 1.453164 -8.598368 -19.22848)" gradientUnits="userSpaceOnUse" xlink:href="#a"/>
  <path fill="url(#b)" fill-rule="evenodd" d="m44.42857 38.57143a19.714285 6.5714288 0 1 1 -39.42857 0 19.714285 6.5714288 0 1 1 39.42857 0z" opacity=".270588"/>
  <path d="m39.774755 19.008621a8.6620579 8.6620579 0 1 1 -17.324115 0 8.6620579 8.6620579 0 1 1 17.324115 0z" style="fill-rule:evenodd;stroke:#9c8c0a;stroke-width:.480044;stroke-linecap:round;stroke-linejoin:round;fill:url(#c)" transform="matrix(2.083142 0 0 2.083142 -40.54715 -16.49224)"/>
  <path d="m39.774755 19.008621a8.6620579 8.6620579 0 1 1 -17.324115 0 8.6620579 8.6620579 0 1 1 17.324115 0z" style="opacity:.677215;fill:none;stroke:#fff;stroke-width:.505106;stroke-linecap:round;stroke-linejoin:round" transform="matrix(1.979782 0 0 1.979782 -37.33128 -14.52746)"/>
  <path fill="none" stroke="#555753" d="m-.875 1.875a2.9375 2.875 0 0 1 -5.4814497 1.4374999" transform="matrix(-.965926 -.258819 .258819 -.965926 24.53442 17.20131)"/>
  <path fill="none" stroke="#555753" d="m-.875 1.875a2.9375 2.875 0 0 1 -5.4814497 1.4374999" transform="matrix(-.965926 -.258819 .258819 -.965926 15.78442 17.20131)"/>
  <path fill="url(#d)" fill-rule="evenodd" d="m15.569526 26.222096s4.738572-1.329123 6.418569-1.34856c1.679996-.019437.301417 1.270806 2.51985 1.245139 2.15557-.02494 1.145916-1.062089 2.747324-1.080618 1.601407-.018528 5.813878.981562 5.813878.981562-2.289547 4.333416-.185292 9.650559-8.580153 9.650559-9.158031 0-5.898058-6.362838-8.919468-9.448082z" opacity=".205556"/>
  <path fill="url(#e)" fill-rule="evenodd" stroke="#a40000" d="m16.110241 26.303277s16.4877.1875 16.4877.1875c-2.38074-1.490777-2.651595-5.277389-4.443428-5.490777-2.948884 1.104671-4.100298 1.193885-7.013138 0-1.854332.489277-3.147227 4.144057-5.031134 5.303277z"/>
  <path fill="url(#f)" fill-rule="evenodd" stroke="#a40000" d="m17.160516 26.255438s3.948753-1.013578 5.34873-1.028401c1.399976-.014822 2.490754 1.272963 2.490754 1.272963s.564007-1.13337 1.898494-1.1475 4.844828.748531 4.844828.748531c-1.907928 3.304628-.154408 7.359438-7.150023 7.359438-7.631583 0-4.914978-4.852249-7.432783-7.205031z"/>
  <g fill="none" stroke="#555753">
    <path d="m-.875 1.875a2.9375 2.875 0 0 1 -3.4117702 2.8372808" transform="matrix(-.314376 .949299 .949299 .314376 29.0954 15.15051)"/>
    <path stroke-width="1.290584" d="m-.875 1.875a2.9375 2.875 0 0 1 -3.3039771 2.8525381" transform="matrix(-.243592 .735557 .735557 .243592 28.13302 13.86608)"/>
    <path stroke-width="1.290584" d="m-1.1427273 3.0741739a2.9375 2.875 0 0 1 -3.2061637 1.6274889" transform="matrix(-.243592 .735557 .735557 .243592 25.63302 13.61608)"/>
    <path d="m-.875 1.875a2.9375 2.875 0 0 1 -3.4117702 2.8372808" transform="matrix(.314376 .949299 -.949299 .314376 19.43113 15.15051)"/>
    <path stroke-width="1.290584" d="m-.875 1.875a2.9375 2.875 0 0 1 -3.3039771 2.8525381" transform="matrix(.243592 .735557 -.735557 .243592 20.39351 13.86608)"/>
    <path stroke-width="1.290584" d="m-1.1427273 3.0741739a2.9375 2.875 0 0 1 -3.2061637 1.6274889" transform="matrix(.243592 .735557 -.735557 .243592 22.89351 13.61608)"/>
  </g>
</svg>
