<?xml version="1.0" encoding="UTF-8" standalone="no"?>
<!DOCTYPE svg PUBLIC "-//W3C//DTD SVG 1.1//EN" 
  "http://www.w3.org/Graphics/SVG/1.1/DTD/svg11.dtd">
<svg xmlns="http://www.w3.org/2000/svg" width="48" height="48">
  <radialGradient id="a" cx="24.714285" cy="38.57143" r="19.714285" gradientTransform="matrix(1 0 0 .333333 0 25.71429)" gradientUnits="userSpaceOnUse">
    <stop offset="0"/>
    <stop offset="1" stop-opacity="0"/>
  </radialGradient>
  <radialGradient id="b" cx="29.288071" cy="15.720984" r="8.90208" fx="29.158466" fy="15.755712" gradientUnits="userSpaceOnUse">
    <stop offset="0" stop-color="#fffcde"/>
    <stop offset=".64485979" stop-color="#f6e76a"/>
    <stop offset="1" stop-color="#ffb738"/>
  </radialGradient>
  <linearGradient id="d" x1="11.25" x2="36.875" y1="26.09375" y2="26.09375" gradientTransform="matrix(.900635 0 0 .512797 2.616633 10.42827)" gradientUnits="userSpaceOnUse">
    <stop offset="0" stop-color="#696969"/>
    <stop offset=".34579438" stop-color="#fff"/>
    <stop offset=".72486681" stop-color="#fff"/>
    <stop offset="1" stop-color="#5c5c5c"/>
  </linearGradient>
  <linearGradient id="c" x1="23.03125" x2="23.03125" y1="24.3125" y2="36.249878" gradientTransform="matrix(.900634 0 0 .512797 2.420862 9.703722)" gradientUnits="userSpaceOnUse">
    <stop offset="0" stop-color="#a40000"/>
    <stop offset="1" stop-color="#ec0000"/>
  </linearGradient>
  <path fill="url(#a)" fill-rule="evenodd" d="m44.42857 38.57143a19.714285 6.5714288 0 1 1 -39.42857 0 19.714285 6.5714288 0 1 1 39.42857 0z" opacity=".531646"/>
  <path d="m39.774755 19.008621a8.6620579 8.6620579 0 1 1 -17.324115 0 8.6620579 8.6620579 0 1 1 17.324115 0z" style="fill-rule:evenodd;stroke:#9c8c0a;stroke-width:.480044;stroke-linecap:round;stroke-linejoin:round;fill:url(#b)" transform="matrix(2.083142 0 0 2.083142 -40.54715 -16.49224)"/>
  <path d="m39.774755 19.008621a8.6620579 8.6620579 0 1 1 -17.324115 0 8.6620579 8.6620579 0 1 1 17.324115 0z" style="opacity:.677215;fill:none;stroke:#fff;stroke-width:.505106;stroke-linecap:round;stroke-linejoin:round" transform="matrix(1.979782 0 0 1.979782 -37.33128 -14.52746)"/>
  <path fill="url(#c)" stroke="#a40000" d="m12.46856 21.582101c-2.6369108-.621975 1.864996 6.83873 11.792676 6.83873 9.829798 0 14.669193-7.443417 11.792676-6.83873-7.506354 1.57795-17.16551 1.514266-23.585352 0z"/>
  <path fill="url(#d)" d="m13.536826 24.177654 21.532033-.059917c.783095-.919614 1.898193-2.372046 1.05233-2.242999-8.023318 1.224064-16.571085 1.796229-23.861853-.100331-1.161346-.302104.15179 1.622969 1.27749 2.403247z"/>
  <g fill="none" stroke="#555753">
    <path d="m-.875 1.875a2.9375 2.875 0 0 1 -5.4814497 1.4374999" transform="matrix(-.965926 -.258819 .258819 -.965926 24.53442 17.20131)"/>
    <path d="m-.875 1.875a2.9375 2.875 0 0 1 -5.4814497 1.4374999" transform="matrix(-.965926 -.258819 .258819 -.965926 15.78442 17.20131)"/>
  </g>
</svg>
