<?xml version="1.0" encoding="UTF-8" standalone="no"?>
<!DOCTYPE svg PUBLIC "-//W3C//DTD SVG 1.1//EN" 
  "http://www.w3.org/Graphics/SVG/1.1/DTD/svg11.dtd">
<svg xmlns="http://www.w3.org/2000/svg" width="48" height="48">
  <radialGradient id="b" cx="29.288071" cy="15.720984" r="8.90208" fx="29.158466" fy="15.755712" gradientUnits="userSpaceOnUse">
    <stop offset="0" stop-color="#fffcde"/>
    <stop offset=".64485979" stop-color="#f6e76a"/>
    <stop offset="1" stop-color="#ffb738"/>
  </radialGradient>
  <radialGradient id="a" cx="24.714285" cy="38.57143" r="19.714285" gradientTransform="matrix(1 0 0 .333333 0 25.71429)" gradientUnits="userSpaceOnUse">
    <stop offset="0"/>
    <stop offset="1" stop-opacity="0"/>
  </radialGradient>
  <radialGradient id="c" cx="24.836429" cy="36.11889" r="19.6965" gradientUnits="userSpaceOnUse">
    <stop offset="0" stop-color="#777"/>
    <stop offset="1"/>
  </radialGradient>
  <path fill="url(#a)" fill-rule="evenodd" d="m44.42857 38.57143a19.714285 6.5714288 0 1 1 -39.42857 0 19.714285 6.5714288 0 1 1 39.42857 0z" opacity=".531646"/>
  <path d="m39.774755 19.008621a8.6620579 8.6620579 0 1 1 -17.324115 0 8.6620579 8.6620579 0 1 1 17.324115 0z" style="stroke-linejoin:round;stroke-linecap:round;stroke-width:.480044;stroke:#9c8c0a;fill-rule:evenodd;fill:url(#b)" transform="matrix(2.083142 0 0 2.083142 -40.54715 -16.49224)"/>
  <path d="m39.774755 19.008621a8.6620579 8.6620579 0 1 1 -17.324115 0 8.6620579 8.6620579 0 1 1 17.324115 0z" style="opacity:.677215;fill:none;stroke:#fff;stroke-width:.505106;stroke-linecap:round;stroke-linejoin:round" transform="matrix(1.979782 0 0 1.979782 -37.33128 -14.52746)"/>
  <path fill="#fff" d="m37.284637 24.719966c-3.016467 5.224673-6.543503 8.990039-12.822145 8.990039-6.100017 0-10.565537-4.339697-13.352476-9.166816 2.549413 3.05592 6.282932 6.566312 13.087311 6.566312 8.130204 0 9.551776-2.906855 13.08731-6.389535z" opacity=".36" transform="matrix(.969372 .245598 -.245598 .969372 6.456937 -5.230004)"/>
  <path fill="url(#c)" d="m37.284637 24.012862c-3.016467 5.224673-6.543503 8.990039-12.822145 8.990039-6.100017 0-10.565537-4.339697-13.352476-9.166816 2.549413 3.05592 6.282932 6.566312 13.087311 6.566312 8.130204 0 9.551776-2.906855 13.08731-6.389535z" transform="matrix(.969372 .245598 -.245598 .969372 6.456937 -5.230004)"/>
  <path fill="#fff" d="m31.042065 17.714134c0 2.5-1.125 4.5-2.5 4.5s-2.5-2-2.5-4.5 1.125-4.5 2.5-4.5 2.5 2 2.5 4.5z" opacity=".36"/>
  <path d="M31.042065 17.089134c0 2.5-1.125 4.5-2.5 4.5s-2.5-2-2.5-4.5 1.125-4.5 2.5-4.5 2.5 2 2.5 4.5zM15.924926 17.535184c1.361504-3.344457 4.84345-3.432276 6.068764-.114834-2.161069-1.71313-4.148092-1.219733-6.068764.114834z"/>
</svg>
