<?xml version="1.0" encoding="UTF-8"?>
<svg xmlns="http://www.w3.org/2000/svg" xmlns:xlink="http://www.w3.org/1999/xlink" width="48" height="48">
  <defs>
    <linearGradient id="b">
      <stop offset="0" stop-color="#2a5387"/>
      <stop offset="1" stop-color="#3465a4"/>
    </linearGradient>
    <linearGradient id="d">
      <stop offset="0" stop-color="#fff"/>
      <stop offset="1" stop-color="#fff" stop-opacity="0"/>
    </linearGradient>
    <linearGradient id="a">
      <stop offset="0" stop-color="#497fc6"/>
      <stop offset="1" stop-color="#90b3d9"/>
    </linearGradient>
    <linearGradient id="c">
      <stop offset="0" stop-color="#fff"/>
      <stop offset="1" stop-color="#b3b3b3" stop-opacity="0"/>
    </linearGradient>
    <linearGradient id="e">
      <stop offset="0"/>
      <stop offset="1" stop-opacity="0"/>
    </linearGradient>
    <linearGradient id="g" x1="29.122" x2="14.296" y1="33.439" y2="6.346" gradientUnits="userSpaceOnUse" xlink:href="#a"/>
    <linearGradient id="h" x1="19.988" x2="19.988" y1="34.983" y2="6.434" gradientUnits="userSpaceOnUse" xlink:href="#b"/>
    <linearGradient id="i" x1="19.892" x2="31.857" y1="16.115" y2="72.781" gradientTransform="translate(0 -3)" gradientUnits="userSpaceOnUse" xlink:href="#c"/>
    <linearGradient id="j" x1="25" x2="26.674" y1="27.5" y2="10" gradientTransform="translate(-1 -4)" gradientUnits="userSpaceOnUse" xlink:href="#d"/>
    <radialGradient id="f" cx="24.837" cy="36.421" r="15.645" fx="24.837" fy="36.421" gradientTransform="matrix(1 0 0 .53672 0 16.873)" gradientUnits="userSpaceOnUse" xlink:href="#e"/>
  </defs>
  <path fill="url(#f)" fill-rule="evenodd" d="M 40.481863 36.421127 A 15.644737 8.3968935 0 1 1 9.1923885,36.421127 A 15.644737 8.3968935 0 1 1 40.481863 36.421127 z" color="#000" opacity=".2" style="marker:none" transform="matrix(1.47014 0 0 .53547 -12.764 20.915)"/>
  <path fill="url(#g)" fill-rule="evenodd" stroke="url(#h)" d="M 18,0.5 L 3,37.5 L 13,37.5 L 15.224112,31.5 L 32.731694,31.5 L 35,37.5 L 45,37.5 L 30,0.5 L 27,0.5 L 21,0.5 L 18,0.5 z M 24,9 L 29.59375,23.5 L 18.40625,23.5 L 24,9 z" transform="translate(0 4)"/>
  <path fill="none" stroke="url(#i)" d="M 4.4634342,36.5 L 18.698561,1.5 L 29.345564,1.5 L 43.563927,36.5 L 35.676777,36.5 L 33.5,30.5 L 14.5,30.5 L 12.265165,36.5 L 4.4634342,36.5 z" opacity=".7" style="text-align:start;line-height:125%" transform="translate(0 4)"/>
  <path fill="none" stroke="url(#j)" d="M 16.881282,24.5 L 31.118718,24.5 L 24,6.5 L 16.881282,24.5 z" opacity=".7" transform="translate(0 4)"/>
</svg>
