<?xml version="1.0" encoding="UTF-8" standalone="no"?>
<svg xmlns="http://www.w3.org/2000/svg" xmlns:xlink="http://www.w3.org/1999/xlink" width="48" height="48">
  <defs>
    <radialGradient id="f" cx="24.837" cy="36.421" r="15.645" fx="24.837" fy="36.421" gradientTransform="matrix(1 0 0 .53672 0 16.873)" gradientUnits="userSpaceOnUse" xlink:href="#a"/>
    <linearGradient id="e">
      <stop offset="0" stop-color="#2a5387"/>
      <stop offset="1" stop-color="#3465a4"/>
    </linearGradient>
    <linearGradient id="b">
      <stop offset="0" stop-color="#fff"/>
      <stop offset="1" stop-color="#fff" stop-opacity="0"/>
    </linearGradient>
    <linearGradient id="d">
      <stop offset="0" stop-color="#497fc6"/>
      <stop offset="1" stop-color="#90b3d9"/>
    </linearGradient>
    <linearGradient id="c">
      <stop offset="0" stop-color="#fff"/>
      <stop offset="1" stop-color="#b3b3b3" stop-opacity="0"/>
    </linearGradient>
    <linearGradient id="a">
      <stop offset="0"/>
      <stop offset="1" stop-opacity="0"/>
    </linearGradient>
    <linearGradient id="j" x1="30.123" x2="30.916" y1="28.5" y2="5.399" gradientTransform="translate(5 1)" gradientUnits="userSpaceOnUse" xlink:href="#b"/>
    <linearGradient id="i" x1="20.847" x2="21.077" y1="15.433" y2="61.926" gradientTransform="translate(6 1)" gradientUnits="userSpaceOnUse" xlink:href="#c"/>
    <linearGradient id="g" x1="29.033" x2="14.334" y1="36.445" y2="9.46" gradientTransform="translate(6 1)" gradientUnits="userSpaceOnUse" xlink:href="#d"/>
    <linearGradient id="h" x1="22.125" x2="22.125" y1="34.963" y2="6.25" gradientTransform="translate(6 4)" gradientUnits="userSpaceOnUse" xlink:href="#e"/>
  </defs>
  <path fill="url(#f)" fill-rule="evenodd" d="M 40.481863 36.421127 A 15.644737 8.3968935 0 1 1 9.1923885,36.421127 A 15.644737 8.3968935 0 1 1 40.481863 36.421127 z" color="#000" opacity=".15" style="marker:none" transform="matrix(1.47014 0 0 .53547 -12.764 20.915)"/>
  <path fill="url(#g)" fill-rule="evenodd" stroke="url(#h)" d="M 34,4.5 L 4,41.5 L 10.500004,41.5 L 16.990516,33.5 L 36.5,33.5 L 36.500004,41.5 L 41.5,41.5 L 41.5,4.5 L 34,4.5 z M 36.5,9.5 L 36.5,28.5 L 21.047086,28.5 L 36.5,9.5 z"/>
  <path fill="none" stroke="url(#i)" d="M 6.1325825,40.5 L 34.5,5.5 L 40.5,5.5 L 40.5,40.5 L 37.388273,40.48699 L 37.388273,32.490985 L 16.793787,32.490985 L 9.8994954,40.5 L 6.1325825,40.5 z" opacity=".7" style="text-align:start;line-height:125%"/>
  <path fill="none" stroke="url(#j)" d="M 18.976888,29.411612 L 37.47949,29.5 L 37.388273,6.8994165 L 18.976888,29.411612 z" opacity=".385"/>
</svg>
