<?xml version="1.0" encoding="UTF-8" standalone="no"?>
<svg xmlns="http://www.w3.org/2000/svg" xmlns:xlink="http://www.w3.org/1999/xlink" width="48" height="48">
  <defs>
    <linearGradient id="g">
      <stop offset="0" stop-color="#dfe0df"/>
      <stop offset=".238" stop-color="#a6b0a6"/>
      <stop offset="1" stop-color="#b5beb5"/>
    </linearGradient>
    <linearGradient id="j">
      <stop offset="0" stop-color="#fff"/>
      <stop offset="1" stop-color="#fff" stop-opacity="0"/>
    </linearGradient>
    <linearGradient id="h">
      <stop offset="0" stop-opacity=".129"/>
      <stop offset="1" stop-opacity="0"/>
    </linearGradient>
    <linearGradient id="i">
      <stop offset="0" stop-color="#fff"/>
      <stop offset="1" stop-color="#ededed"/>
    </linearGradient>
    <linearGradient id="f">
      <stop offset="0" stop-color="#fff"/>
      <stop offset="1" stop-color="#e2e2e2"/>
    </linearGradient>
    <linearGradient id="e">
      <stop offset="0"/>
      <stop offset="1" stop-opacity="0"/>
    </linearGradient>
    <linearGradient id="d">
      <stop offset="0" stop-color="#fff" stop-opacity=".255"/>
      <stop offset="1" stop-color="#fff"/>
    </linearGradient>
    <linearGradient id="c">
      <stop offset="0" stop-color="#fff"/>
      <stop offset="1" stop-color="#fff" stop-opacity="0"/>
    </linearGradient>
    <linearGradient id="a">
      <stop offset="0" stop-color="#3465a4"/>
      <stop offset="1" stop-color="#3465a4" stop-opacity="0"/>
    </linearGradient>
    <linearGradient id="b">
      <stop offset="0" stop-color="#204a87"/>
      <stop offset="1" stop-color="#204a87" stop-opacity="0"/>
    </linearGradient>
    <linearGradient id="s" x1="14.752" x2="12.252" y1="15.868" y2="30.558" gradientTransform="rotate(90 21.477 15.598)" gradientUnits="userSpaceOnUse" xlink:href="#a"/>
    <linearGradient id="t" x1="12.25" x2="9.582" y1="18.25" y2="27.057" gradientTransform="rotate(90 21.477 15.598)" gradientUnits="userSpaceOnUse" xlink:href="#b"/>
    <linearGradient id="u" x1="33.06" x2="12.624" y1="27.394" y2="12.584" gradientTransform="rotate(90 24.765 15.017) scale(.91411)" gradientUnits="userSpaceOnUse" xlink:href="#c"/>
    <linearGradient id="v" x1="32.058" x2="27.909" y1="8.669" y2="18.069" gradientTransform="rotate(90 21.477 15.598)" gradientUnits="userSpaceOnUse" xlink:href="#d"/>
    <radialGradient id="k" cx="6.703" cy="73.616" r="7.228" fx="6.703" fy="73.616" gradientTransform="scale(1.90221 .5257)" gradientUnits="userSpaceOnUse" xlink:href="#e"/>
    <linearGradient id="l" x1="11.573" x2="18.475" y1="4.746" y2="26.023" gradientTransform="matrix(1.34347 0 0 1.50585 2.88 -2.266)" gradientUnits="userSpaceOnUse" xlink:href="#f"/>
    <linearGradient id="m" x1="9.164" x2="9.886" y1="38.071" y2="52.091" gradientTransform="matrix(2.45478 0 0 .762 2.882 .337)" gradientUnits="userSpaceOnUse" xlink:href="#g"/>
    <radialGradient id="n" cx="27.741" cy="38.712" r="17.978" fx="27.741" fy="38.712" gradientTransform="matrix(.62993 .45937 -.14768 .24851 16.517 9.054)" gradientUnits="userSpaceOnUse" xlink:href="#h"/>
    <linearGradient id="o" x1="11.742" x2="13.847" y1="11.485" y2="11.982" gradientTransform="matrix(1.29601 0 0 -1.43692 3.747 33.205)" gradientUnits="userSpaceOnUse" xlink:href="#f"/>
    <linearGradient id="p" x1="10.027" x2="17.178" y1="20.22" y2="-7.527" gradientTransform="matrix(1.5706 0 0 -1.23151 2.973 33.335)" gradientUnits="userSpaceOnUse" xlink:href="#f"/>
    <linearGradient id="q" x1="11.842" x2="40.024" y1="4.251" y2="7.412" gradientTransform="matrix(1.37093 0 0 -1.46456 2.525 33.713)" gradientUnits="userSpaceOnUse" xlink:href="#i"/>
    <linearGradient id="r" x1="17.397" x2="22.178" y1="33.357" y2="31.027" gradientUnits="userSpaceOnUse" xlink:href="#j"/>
  </defs>
  <path fill="url(#k)" d="M26.5 38.7a13.75 3.8 0 1 1-27.5 0 13.75 3.8 0 1 1 27.5 0z" color="#000" opacity=".3" style="marker:none" transform="matrix(1.59697 0 0 1.52606 3.68 -19.71)"/>
  <path fill="url(#l)" fill-rule="evenodd" stroke="#888a85" stroke-linejoin="round" stroke-width=".995" d="M6.344 15.455v25.987h36.968l-.062-25.888v-.066c-.001-.007-.03-.026-.031-.033H6.344z" transform="matrix(1.00473 0 0 1.006 .055 -9.12)"/>
  <path fill="url(#m)" fill-rule="evenodd" d="M20.49 29.059L7.096 40.03l13.909-9.605h9.018L42.44 39.91 30.576 29.06H20.491z" transform="matrix(1.00473 0 0 1.006 .055 -9.12)"/>
  <path fill="none" stroke="#fff" stroke-width=".995" d="M7.344 16.734c-.007.013.005.02 0 .031-.003.006-.03.027-.032.032-.001.005.002.027 0 .032v.031l.032 23.474H42.28l-.062-23.347v-.032a1.024 1.024 0 0 0-.094-.221H7.344z" transform="matrix(1.00473 0 0 1.006 .055 -9.12)"/>
  <path fill="url(#n)" fill-rule="evenodd" d="M23.33 32.997C20.936 32.55 7.9 18.77 6.596 16.372a2.712 2.712 0 0 1-.052-.108h34.513c-.277 2.502-7.524 16.505-9.561 16.733h-8.049c-.034 0-.078.007-.118 0z" transform="matrix(1.00473 0 0 1.006 .055 -9.12)"/>
  <path fill="url(#o)" fill-rule="evenodd" stroke="#989898" stroke-linejoin="round" stroke-width=".852" d="M20.775 31.085c-2.368-.39-12.83-12.466-13.656-14.568a1.713 1.713 0 0 1-.03-.095H42.63c-.824 2.193-11.299 14.464-13.445 14.663h-8.29c-.035 0-.082.007-.121 0z" transform="matrix(1.00473 0 0 1.006 .055 -9.12)"/>
  <path fill="url(#p)" fill-rule="evenodd" d="M20.625 30.49C18.52 30 7.722 17.988 7.031 16.466c-.002-.006.003-.026 0-.032-.005-.016-.029-.052-.03-.065v-.032c0-.002.029.002.03 0l.094-.097h35.469c-.003.025-.023.067-.031.097-.008.024-.02.07-.032.097-.922 2.181-11.508 13.767-13.343 14.056-.015.002-.05 0-.063 0H20.75c-.03-.001-.09.009-.125 0z" transform="matrix(1.00473 0 0 1.006 .055 -9.12)"/>
  <path fill="none" stroke="url(#q)" stroke-width=".852" d="M20.875 30.051c-2.448-.55-12.171-11.617-13.344-13.6h34.594c-1.49 2.334-11.046 13.413-13.156 13.6H21.03c-.026 0-.064.004-.093 0-.02-.003-.042.005-.063 0z" transform="matrix(1.00473 0 0 1.006 .055 -9.12)"/>
  <path fill="url(#r)" fill-rule="evenodd" d="M20.96 30.447L9.018 38.718l2.22.006 9.998-6.869 8.821-1.423-9.097.015z" transform="matrix(1.00473 0 0 1.006 .055 -9.12)"/>
  <g color="#000">
    <path fill="url(#s)" stroke="url(#t)" d="M3.203 25.835C2.173-5.385 28.742-.45 28.583 15.79h7.312L24.518 28.775 12.585 15.789h7.542C20.584 4.819 3.409 1.61 3.203 25.835z" display="block" style="marker:none" transform="rotate(90 18.335 25.94)"/>
    <path fill="none" stroke="url(#u)" stroke-miterlimit="10" d="M7.664 9.104C12.406-.04 28.122 2.718 27.762 16.58h6.317l-9.566 10.958L14.417 16.58h6.456c.272-11.575-9.95-11.044-13.209-7.475z" display="block" opacity=".472" style="marker:none" transform="rotate(90 18.335 25.94)"/>
    <path fill="url(#v)" d="M19.156 10.781c-.055.001-.1.03-.156.031 23.612.466 20.384 17.36 9.5 16.907l-.014-7.529L15.5 32.125l.125.125c8.454-2.335 18.966.283 25.563-6.344 1.089-7.188-4.787-15.464-22.032-15.125z" display="block" opacity=".5" style="marker:none"/>
  </g>
</svg>
