<?xml version="1.0" encoding="UTF-8"?>
<svg xmlns="http://www.w3.org/2000/svg" xmlns:xlink="http://www.w3.org/1999/xlink" width="48" height="48">
  <defs>
    <linearGradient id="f">
      <stop offset="0" stop-color="#fff"/>
      <stop offset="1" stop-color="#fff" stop-opacity="0"/>
    </linearGradient>
    <linearGradient id="e">
      <stop offset="0" stop-color="#dfe2dc"/>
      <stop offset="1" stop-color="#86917a"/>
    </linearGradient>
    <linearGradient id="d">
      <stop offset="0" stop-color="#fff"/>
      <stop offset="1" stop-color="#aeaea3"/>
    </linearGradient>
    <linearGradient id="c">
      <stop offset="0"/>
      <stop offset="1" stop-opacity="0"/>
    </linearGradient>
    <linearGradient id="b">
      <stop offset="0" stop-color="#babdb6"/>
      <stop offset="1" stop-color="#fff"/>
    </linearGradient>
    <linearGradient id="a">
      <stop offset="0"/>
      <stop offset="1" stop-opacity="0"/>
    </linearGradient>
    <radialGradient id="g" cx="24.837" cy="40.664" r="21.478" fx="24.837" fy="40.664" gradientTransform="matrix(1 0 0 .3251 0 27.444)" gradientUnits="userSpaceOnUse" xlink:href="#a"/>
    <linearGradient id="k" x1="24.366" x2="32.601" y1="20.246" y2="28.555" gradientUnits="userSpaceOnUse" xlink:href="#b"/>
    <linearGradient id="j" x1="22.009" x2="23.585" y1="36.51" y2="14.412" gradientUnits="userSpaceOnUse" xlink:href="#b"/>
    <linearGradient id="l" x1="25.633" x2="38.714" y1="10.612" y2="18.39" gradientUnits="userSpaceOnUse" xlink:href="#c"/>
    <radialGradient id="h" cx="23.688" cy="14.211" r="22.597" fx="23.688" fy="14.211" gradientTransform="matrix(2.13567 0 0 2.1106 -26.902 -15.67)" gradientUnits="userSpaceOnUse" xlink:href="#d"/>
    <radialGradient id="i" cx="20.09" cy="10.854" r="22.597" fx="20.09" fy="10.854" gradientTransform="matrix(1.79027 0 0 1.76926 -15.814 -11.95)" gradientUnits="userSpaceOnUse" xlink:href="#e"/>
    <linearGradient id="m" x1="19.451" x2="23.719" y1="14.464" y2="48.405" gradientUnits="userSpaceOnUse" xlink:href="#f"/>
  </defs>
  <g color="#000">
    <path fill="url(#g)" fill-rule="evenodd" d="M 46.315495 40.663769 A 21.478369 6.9826794 0 1 1 3.358757,40.663769 A 21.478369 6.9826794 0 1 1 46.315495 40.663769 z" opacity=".326" style="marker:none" transform="translate(-3.365 -5.412) scale(1.107)"/>
    <path id="n" fill="url(#h)" fill-rule="evenodd" stroke="url(#i)" d="M 9.0156115,37.570175 L 7.2478445,40.398602 L 10.960155,41.989592 L 13.611806,39.868272 L 25.455844,40.752155 L 29.168155,45.701903 L 32.526912,40.221825 L 36.769553,42.519922 L 42.426407,41.812816 L 41.012193,38.807612 L 44.901281,34.918524 L 39.421203,28.73134 L 44.724504,29.438447 L 47.022601,27.317127 L 44.017397,27.847457 L 40.835417,22.367379 L 36.239223,21.306719 L 39.951533,20.069282 L 40.12831,16.887302 L 32.880465,10.523341 L 30.228815,2.0380592 L 18.208,5.5735931 L 15.202796,12.644661 L 14.142136,10.346564 L 11.136932,10.523341 L 11.136932,13.351768 L 7.6013979,9.2859037 L 2.8284271,14.412428 L 2.8284271,21.660272 L 11.136932,28.908117 L 5.833631,31.913321 L 6.0104076,34.918524 L 9.0156115,37.570175 z" style="marker:none"/>
    <path fill="url(#j)" fill-rule="evenodd" d="M 19.445437,22.720933 L 18.561553,29.26167 L 20.682873,32.620427 L 16.086679,34.034641 L 13.435029,39.337942 L 25.455844,40.221825 L 28.284271,44.287689 L 30.582368,38.100505 L 26.162951,35.272078 L 19.445437,37.216622 L 22.097087,33.681088 L 20.682873,27.493903 L 19.445437,22.720933 z" opacity=".77" style="marker:none"/>
    <path fill="url(#k)" fill-rule="evenodd" d="M 20.506097,23.781593 L 24.925514,30.675884 L 32.173359,25.726136 L 36.592776,28.20101 L 40.12831,25.195806 L 43.31029,28.024233 L 40.305087,23.074486 L 33.410795,21.483496 L 24.748737,17.240855 C 24.748737,17.240855 12.374369,20.953166 13.081475,20.953166 C 13.788582,20.953166 23.334524,21.129942 23.334524,21.129942 L 24.925514,18.831845 L 29.168155,20.776389 L 20.506097,23.781593 z" opacity=".618" style="marker:none"/>
    <path fill="#fff" fill-rule="evenodd" d="M 29.521708,3.4522727 L 19.091883,6.9878066 L 17.67767,10.876894 L 23.688077,15.119535 L 29.344931,9.6394571 L 29.521708,3.4522727 z" style="marker:none"/>
    <path fill="url(#l)" fill-rule="evenodd" d="M 29.698485,3.8058261 L 31.996582,11.230447 L 36.239223,14.942758 L 27.577165,12.998214 C 27.577165,12.998214 25.102291,15.826641 26.162951,15.826641 C 27.223611,15.826641 38.714096,17.240855 38.714096,17.240855 L 38.53732,19.538952 L 22.273864,16.533748 L 29.344931,9.9930105 L 29.698485,3.8058261 z" opacity=".135" style="marker:none"/>
    <path fill="#fff" fill-rule="evenodd" d="M7.4246212 14.235651L6.5407377 23.074486 8.4852814 17.064078 13.611806 18.655069 14.849242 16.003418 21.036427 16.887302 22.45064 15.649865 13.435029 15.296311 12.551145 17.771185 8.6620581 15.826641 7.4246212 14.235651zM22.45064 27.317127L25.455844 30.852661 32.350135 26.256466 36.592776 28.554563 43.487067 35.095301 35.885669 29.26167 32.173359 28.20101 24.925514 33.150758 22.45064 27.317127z" style="marker:none"/>
    <path fill="none" stroke="url(#m)" d="M 29.65625,3.09375 L 18.84375,6.25 L 15.96875,13 C 15.834262,13.30255 15.53422,13.497528 15.203125,13.497528 C 14.87203,13.497528 14.571988,13.30255 14.4375,13 L 13.65625,11.21875 L 11.96875,11.3125 L 11.96875,13.34375 C 11.973462,13.69495 11.758625,14.011813 11.430625,14.13743 C 11.102625,14.263047 10.731089,14.170753 10.5,13.90625 L 7.5625,10.53125 L 3.6875,14.71875 L 3.6875,21.28125 L 11.6875,28.28125 C 11.883657,28.462891 11.981357,28.727236 11.950479,28.992788 C 11.919601,29.25834 11.763852,29.493214 11.53125,29.625 L 6.71875,32.375 L 6.8125,34.5 L 9.5625,36.9375 C 9.8645501,37.207345 9.9303261,37.654622 9.71875,38 L 8.46875,40 L 10.84375,41.03125 L 13.09375,39.21875 C 13.260233,39.0823 13.472846,39.015159 13.6875,39.03125 L 25.53125,39.90625 C 25.769158,39.930835 25.985219,40.055923 26.125,40.25 L 29.09375,44.21875 L 31.8125,39.78125 C 32.041236,39.389926 32.539705,39.251463 32.9375,39.46875 L 36.96875,41.65625 L 41.1875,41.125 L 40.25,39.1875 C 40.087762,38.864671 40.150741,38.474201 40.40625,38.21875 L 43.75,34.875 L 38.78125,29.28125 C 38.529387,29.019826 38.474521,28.625949 38.645349,28.305645 C 38.816178,27.985341 39.17384,27.811478 39.53125,27.875 L 43.40625,28.40625 C 43.369413,28.35773 43.337977,28.305337 43.3125,28.25 L 40.3125,23.09375 L 36.0625,22.125 C 35.709163,22.034799 35.454745,21.726417 35.433331,21.362378 C 35.411917,20.998338 35.628425,20.662254 35.96875,20.53125 L 39.125,19.46875 L 39.25,17.21875 L 32.3125,11.15625 C 32.19648,11.05643 32.110019,10.926737 32.0625,10.78125 L 29.65625,3.09375 z" style="marker:none"/>
  </g>
</svg>
