<?xml version="1.0" encoding="UTF-8"?>
<svg xmlns="http://www.w3.org/2000/svg" xmlns:xlink="http://www.w3.org/1999/xlink" width="48" height="48">
  <defs>
    <linearGradient id="b">
      <stop offset="0" stop-color="#d3d7cf"/>
      <stop offset=".5" stop-color="#f5f5f5"/>
      <stop offset="1" stop-color="#bebebe"/>
    </linearGradient>
    <linearGradient id="a">
      <stop offset="0"/>
      <stop offset="1" stop-opacity="0"/>
    </linearGradient>
    <radialGradient id="d" cx="21.762" cy="23.071" r="15.571" fx="21.762" fy="23.071" gradientTransform="matrix(.97728 0 0 .65138 -.794 15.829)" gradientUnits="userSpaceOnUse" xlink:href="#a"/>
    <linearGradient id="c" x1="23.506" x2="20.605" y1="5.775" y2="29.859" gradientUnits="userSpaceOnUse" xlink:href="#b"/>
  </defs>
  <g fill="none" stroke-linecap="round" stroke-linejoin="round">
    <path stroke="#888a85" stroke-width="3" d="M 21.326337,9.3278633 L 10.449186,27.94227 C 8.5266861,31.23365 9.6775753,35.481172 13.008091,37.38221 L 15.102397,38.579075 C 18.434077,40.480111 22.732254,39.341738 24.655919,36.05036 L 36.41168,15.928621 C 38.335346,12.636117 37.625044,8.6405654 34.835356,7.0477444 C 32.045435,5.4549233 28.187846,6.8452672 26.265346,10.137772 L 18.109581,24.099704 C 16.186149,27.391081 15.978909,30.871442 17.647547,31.836583 C 19.317351,32.799475 22.257398,30.893938 24.179898,27.602558 L 28.142388,20.81957" transform="translate(.494 1.056)"/>
    <path stroke="url(#c)" d="M 21.326337,9.2155349 L 10.449186,27.829941 C 8.5266861,31.121321 9.6775753,35.368843 13.008091,37.269881 L 15.102397,38.466746 C 18.434077,40.367782 22.732254,39.229409 24.655919,35.938031 L 36.41168,15.816292 C 38.335346,12.523788 37.625044,8.528237 34.835356,6.935416 C 32.045435,5.3425949 28.187846,6.7329388 26.265346,10.025444 L 18.109581,23.987375 C 16.186149,27.278752 15.978909,30.759113 17.647547,31.724254 C 19.317351,32.687146 22.257398,30.781609 24.179898,27.490229 L 28.142388,20.707241" transform="translate(.494 1.168)"/>
  </g>
  <path fill="url(#d)" d="M 38.142857 30.857143 A 15.571428 10.142858 0 1 1 7,30.857143 A 15.571428 10.142858 0 1 1 38.142857 30.857143 z" color="#000" opacity=".25" style="marker:none" transform="matrix(1.31651 0 0 .24648 -2.216 33.894)"/>
</svg>
