<?xml version="1.0" encoding="UTF-8" standalone="no"?>
<svg xmlns="http://www.w3.org/2000/svg" xmlns:xlink="http://www.w3.org/1999/xlink" width="48" height="48">
  <defs>
    <linearGradient id="g">
      <stop offset="0" stop-color="#fff"/>
      <stop offset="1" stop-color="#fff" stop-opacity="0"/>
    </linearGradient>
    <linearGradient id="h">
      <stop offset="0" stop-color="#729fcf"/>
      <stop offset="1" stop-color="#afc9e4"/>
    </linearGradient>
    <linearGradient id="c">
      <stop offset="0" stop-color="#dfe0df"/>
      <stop offset=".238" stop-color="#a6b0a6"/>
      <stop offset="1" stop-color="#b5beb5"/>
    </linearGradient>
    <linearGradient id="f">
      <stop offset="0" stop-color="#fff"/>
      <stop offset="1" stop-color="#fff" stop-opacity="0"/>
    </linearGradient>
    <linearGradient id="d">
      <stop offset="0" stop-opacity=".129"/>
      <stop offset="1" stop-opacity="0"/>
    </linearGradient>
    <linearGradient id="e">
      <stop offset="0" stop-color="#fff"/>
      <stop offset="1" stop-color="#ededed"/>
    </linearGradient>
    <linearGradient id="b">
      <stop offset="0" stop-color="#fff"/>
      <stop offset="1" stop-color="#e2e2e2"/>
    </linearGradient>
    <linearGradient id="a">
      <stop offset="0"/>
      <stop offset="1" stop-opacity="0"/>
    </linearGradient>
    <radialGradient id="j" cx="6.703" cy="73.616" r="7.228" fx="6.703" fy="73.616" gradientTransform="scale(1.90221 .5257)" gradientUnits="userSpaceOnUse" xlink:href="#a"/>
    <linearGradient id="k" x1="11.573" x2="18.475" y1="4.746" y2="26.023" gradientTransform="matrix(1.35767 0 0 1.50585 2.843 -2.266)" gradientUnits="userSpaceOnUse" xlink:href="#b"/>
    <linearGradient id="l" x1="9.164" x2="9.886" y1="38.071" y2="52.091" gradientTransform="matrix(2.45478 0 0 .762 2.882 .337)" gradientUnits="userSpaceOnUse" xlink:href="#c"/>
    <radialGradient id="m" cx="27.741" cy="38.712" r="17.978" fx="27.741" fy="38.712" gradientTransform="matrix(.62993 .45937 -.14768 .24851 16.517 9.054)" gradientUnits="userSpaceOnUse" xlink:href="#d"/>
    <linearGradient id="n" x1="11.742" x2="13.847" y1="11.485" y2="11.982" gradientTransform="matrix(1.29601 0 0 -1.43692 3.747 33.205)" gradientUnits="userSpaceOnUse" xlink:href="#b"/>
    <linearGradient id="o" x1="10.027" x2="17.178" y1="20.22" y2="-7.527" gradientTransform="matrix(1.5706 0 0 -1.23151 2.973 33.335)" gradientUnits="userSpaceOnUse" xlink:href="#b"/>
    <linearGradient id="p" x1="11.842" x2="40.024" y1="4.251" y2="7.412" gradientTransform="matrix(1.37093 0 0 -1.46456 2.525 33.713)" gradientUnits="userSpaceOnUse" xlink:href="#e"/>
    <linearGradient id="q" x1="17.397" x2="22.178" y1="33.357" y2="31.027" gradientUnits="userSpaceOnUse" xlink:href="#f"/>
    <linearGradient id="r" x1="11.573" x2="18.475" y1="4.746" y2="26.023" gradientTransform="matrix(1.35767 0 0 1.50585 2.843 -2.266)" gradientUnits="userSpaceOnUse" xlink:href="#b"/>
    <linearGradient id="s" x1="9.164" x2="9.886" y1="38.071" y2="52.091" gradientTransform="matrix(2.45478 0 0 .762 2.882 .337)" gradientUnits="userSpaceOnUse" xlink:href="#c"/>
    <radialGradient id="t" cx="27.741" cy="38.712" r="17.978" fx="27.741" fy="38.712" gradientTransform="matrix(.62993 .45937 -.14768 .24851 16.517 9.054)" gradientUnits="userSpaceOnUse" xlink:href="#d"/>
    <linearGradient id="u" x1="11.742" x2="13.847" y1="11.485" y2="11.982" gradientTransform="matrix(1.29601 0 0 -1.43692 3.747 33.205)" gradientUnits="userSpaceOnUse" xlink:href="#b"/>
    <linearGradient id="v" x1="10.027" x2="17.178" y1="20.22" y2="-7.527" gradientTransform="matrix(1.5706 0 0 -1.23151 2.973 33.335)" gradientUnits="userSpaceOnUse" xlink:href="#b"/>
    <linearGradient id="w" x1="11.842" x2="40.024" y1="4.251" y2="7.412" gradientTransform="matrix(1.37093 0 0 -1.46456 2.525 33.713)" gradientUnits="userSpaceOnUse" xlink:href="#e"/>
    <linearGradient id="x" x1="17.397" x2="22.178" y1="33.357" y2="31.027" gradientUnits="userSpaceOnUse" xlink:href="#f"/>
    <linearGradient id="i" x1="25.95" x2="29.478" y1="2.87" y2="46.062" gradientTransform="matrix(-.9018 .21082 -.21162 -.89879 63.541 37.874)" gradientUnits="userSpaceOnUse" xlink:href="#g"/>
    <linearGradient id="y" x1="21.587" x2="21.587" y1="23.499" y2="2.816" gradientTransform="matrix(1.1069 -.2584 .25975 1.10166 -19.667 12.198)" gradientUnits="userSpaceOnUse" xlink:href="#h"/>
    <linearGradient id="z" x1="25.95" x2="29.478" y1="2.87" y2="46.062" gradientTransform="matrix(1.1069 -.2584 .25975 1.10166 -19.667 12.198)" gradientUnits="userSpaceOnUse" xlink:href="#g"/>
  </defs>
  <g stroke-width=".92" color="#000">
    <path fill="#386ea7" stroke="#173563" stroke-width="1" d="M47.541 17.194l-5.223-4.254-11.382 13.88-3.483-2.836-7.263 23.023 19.451-13.096-3.482-2.836 11.382-13.88z" style="marker:none"/>
    <path fill="none" stroke="url(#i)" d="M45.089 19.24l-3.318-2.773-10.474 12.808-2.86-2.34-5.444 17.222 14.632-9.761-2.999-2.392L45.089 19.24z" opacity=".571" style="marker:none" transform="translate(-3.01 -3.644) scale(1.0875)"/>
  </g>
  <path fill="url(#j)" d="M26.5 38.7a13.75 3.8 0 1 1-27.5 0 13.75 3.8 0 1 1 27.5 0z" color="#000" opacity=".3" style="marker:none" transform="matrix(1.59697 0 0 1.52606 4.094 -25.452)"/>
  <path fill="url(#k)" fill-rule="evenodd" stroke="#888a85" stroke-linejoin="round" stroke-width="1.38" d="M6.344 15.455v25.987h37.36l-.064-25.888v-.066c-.002-.007-.03-.026-.032-.033H6.344z" transform="matrix(.72534 0 0 .7242 12.81 -4.605)"/>
  <path fill="url(#l)" fill-rule="evenodd" d="M20.49 29.059L7.096 40.03l13.909-9.605h9.018L42.44 39.91 30.576 29.06H20.491z" transform="matrix(.72534 0 0 .7242 12.81 -4.605)"/>
  <path fill="none" stroke="#fff" stroke-width="1.38" d="M7.531 16.734c-.007.013.005.02 0 .031-.002.006-.029.026-.031.031-.002.005.001.027 0 .032v.03l.031 23.218h34.793l-.062-23.092v-.031a1.01 1.01 0 0 0-.093-.22H7.53z" transform="matrix(.72534 0 0 .7242 12.81 -4.605)"/>
  <path fill="url(#m)" fill-rule="evenodd" d="M23.33 32.997C20.936 32.55 7.9 18.77 6.596 16.372a2.712 2.712 0 0 1-.052-.108h34.513c-.277 2.502-7.524 16.505-9.561 16.733h-8.049c-.034 0-.078.007-.118 0z" transform="matrix(.72534 0 0 .7242 12.81 -4.605)"/>
  <path fill="url(#n)" fill-rule="evenodd" stroke="#989898" stroke-linejoin="round" stroke-width="1.182" d="M20.775 31.085c-2.368-.39-12.83-12.466-13.656-14.568a1.713 1.713 0 0 1-.03-.095H42.63c-.824 2.193-11.299 14.464-13.445 14.663h-8.29c-.035 0-.082.007-.121 0z" transform="matrix(.72534 0 0 .7242 12.81 -4.605)"/>
  <path fill="url(#o)" fill-rule="evenodd" d="M20.625 30.49C18.52 30 7.722 17.988 7.031 16.466c-.002-.006.003-.026 0-.032-.005-.016-.029-.052-.03-.065v-.032c0-.002.029.002.03 0l.094-.097h35.469c-.003.025-.023.067-.031.097-.008.024-.02.07-.032.097-.922 2.181-11.508 13.767-13.343 14.056-.015.002-.05 0-.063 0H20.75c-.03-.001-.09.009-.125 0z" transform="matrix(.72534 0 0 .7242 12.81 -4.605)"/>
  <path fill="none" stroke="url(#p)" stroke-width="1.182" d="M20.875 30.051c-2.448-.55-12.171-11.617-13.344-13.6h34.594c-1.49 2.334-11.046 13.413-13.156 13.6H21.03c-.026 0-.064.004-.093 0-.02-.003-.042.005-.063 0z" transform="matrix(.72534 0 0 .7242 12.81 -4.605)"/>
  <path fill="url(#q)" fill-rule="evenodd" d="M20.96 30.447L9.018 38.718l2.22.006 9.998-6.869 8.821-1.423-9.097.015z" transform="matrix(.72534 0 0 .7242 12.81 -4.605)"/>
  <path fill="url(#r)" fill-rule="evenodd" stroke="#888a85" stroke-linejoin="round" stroke-width="1.38" d="M6.344 15.455v25.987h37.36l-.064-25.888v-.066c-.002-.007-.03-.026-.032-.033H6.344z" transform="matrix(.72534 0 0 .7242 2.911 4.588)"/>
  <path fill="url(#s)" fill-rule="evenodd" d="M20.49 29.059L7.096 40.03l13.909-9.605h9.018L42.44 39.91 30.576 29.06H20.491z" transform="matrix(.72534 0 0 .7242 2.911 4.588)"/>
  <path fill="none" stroke="#fff" stroke-width="1.38" d="M7.531 16.734c-.007.013.005.02 0 .031-.002.006-.029.026-.031.031-.002.005.001.027 0 .032v.03l.031 23.218h34.793l-.062-23.092v-.031a1.01 1.01 0 0 0-.093-.22H7.53z" transform="matrix(.72534 0 0 .7242 2.911 4.588)"/>
  <path fill="url(#t)" fill-rule="evenodd" d="M23.33 32.997C20.936 32.55 7.9 18.77 6.596 16.372a2.712 2.712 0 0 1-.052-.108h34.513c-.277 2.502-7.524 16.505-9.561 16.733h-8.049c-.034 0-.078.007-.118 0z" transform="matrix(.72534 0 0 .7242 2.911 4.588)"/>
  <path fill="url(#u)" fill-rule="evenodd" stroke="#989898" stroke-linejoin="round" stroke-width="1.182" d="M20.775 31.085c-2.368-.39-12.83-12.466-13.656-14.568a1.713 1.713 0 0 1-.03-.095H42.63c-.824 2.193-11.299 14.464-13.445 14.663h-8.29c-.035 0-.082.007-.121 0z" transform="matrix(.72534 0 0 .7242 2.911 4.588)"/>
  <path fill="url(#v)" fill-rule="evenodd" d="M20.625 30.49C18.52 30 7.722 17.988 7.031 16.466c-.002-.006.003-.026 0-.032-.005-.016-.029-.052-.03-.065v-.032c0-.002.029.002.03 0l.094-.097h35.469c-.003.025-.023.067-.031.097-.008.024-.02.07-.032.097-.922 2.181-11.508 13.767-13.343 14.056-.015.002-.05 0-.063 0H20.75c-.03-.001-.09.009-.125 0z" transform="matrix(.72534 0 0 .7242 2.911 4.588)"/>
  <path fill="none" stroke="url(#w)" stroke-width="1.182" d="M20.875 30.051c-2.448-.55-12.171-11.617-13.344-13.6h34.594c-1.49 2.334-11.046 13.413-13.156 13.6H21.03c-.026 0-.064.004-.093 0-.02-.003-.042.005-.063 0z" transform="matrix(.72534 0 0 .7242 2.911 4.588)"/>
  <path fill="url(#x)" fill-rule="evenodd" d="M20.96 30.447L9.018 38.718l2.22.006 9.998-6.869 8.821-1.423-9.097.015z" transform="matrix(.72534 0 0 .7242 2.911 4.588)"/>
  <g color="#000">
    <path fill="url(#y)" stroke="#3465a4" d="M1.35 35.242l5.895 4.795 12.847-15.645 3.93 3.197 8.198-25.95-21.954 14.762 3.93 3.196L1.35 35.242z" style="marker:none" transform="translate(0 -1)"/>
    <path fill="none" stroke="url(#z)" d="M2.982 35.038l4.073 3.4 12.856-15.7 3.51 2.869 6.683-21.11-17.96 11.965 3.68 2.931L2.983 35.038z" opacity=".571" style="marker:none" transform="translate(0 -1)"/>
  </g>
</svg>
