<?xml version="1.0" encoding="UTF-8"?>
<svg xmlns="http://www.w3.org/2000/svg" xmlns:xlink="http://www.w3.org/1999/xlink" width="48" height="48">
  <defs>
    <linearGradient id="a">
      <stop offset="0" stop-color="#fff"/>
      <stop offset="1" stop-color="#fff" stop-opacity="0"/>
    </linearGradient>
    <linearGradient id="b" x1="10.872" x2="10.872" y1="15.555" y2="54.634" gradientUnits="userSpaceOnUse" xlink:href="#a"/>
    <linearGradient id="c" x1="10.872" x2="10.872" y1="15.555" y2="54.634" gradientTransform="matrix(-1 0 0 1 49.624 -9.634)" gradientUnits="userSpaceOnUse" xlink:href="#a"/>
  </defs>
  <g fill="#3465a4" stroke="#204a87" stroke-width="2.13">
    <path d="M 148.52832,163.19141 C 148.26758,162.52539 147.9209,161.76758 147.49902,160.96484 L 144.86621,162.08984 C 142.99609,159.00586 142.88281,152.55859 143.23242,150.4751 C 144.07129,145.4751 146.37012,141.0542 144.79492,135.94482 C 142.9834,130.06885 139.11816,120.90479 132.90039,118.49854 C 129.3125,117.10986 126.57715,120.23877 124.8125,122.98584 C 122.10742,127.19775 120.62207,132.30615 120.15137,137.26416 C 119.61719,142.87744 120.96777,148.62744 123.6123,153.58594 C 126.15234,158.35156 130.41406,162.3457 132.11621,167.53906 L 129.81836,168.52148 C 129.98242,169.05469 130.16016,169.57031 130.35059,170.05469 C 132.2002,174.77539 138.41797,184.19141 144.86328,181 C 151.42285,177.75 150.68164,168.68945 148.52832,163.19141 z" transform="matrix(.46633 0 0 .47252 -46.476 -42.332)"/>
    <path d="M 148.52832,163.19141 C 148.26758,162.52539 147.9209,161.76758 147.49902,160.96484 L 144.86621,162.08984 C 142.99609,159.00586 142.88281,152.55859 143.23242,150.4751 C 144.07129,145.4751 146.37012,141.0542 144.79492,135.94482 C 142.9834,130.06885 139.11816,120.90479 132.90039,118.49854 C 129.3125,117.10986 126.57715,120.23877 124.8125,122.98584 C 122.10742,127.19775 120.62207,132.30615 120.15137,137.26416 C 119.61719,142.87744 120.96777,148.62744 123.6123,153.58594 C 126.15234,158.35156 130.41406,162.3457 132.11621,167.53906 C 131.45735,167.7531 130.58431,168.19401 129.81836,168.52148 C 129.98242,169.05469 130.16016,169.57031 130.35059,170.05469 C 132.2002,174.77539 138.41797,184.19141 144.86328,181 C 151.42285,177.75 150.68164,168.68945 148.52832,163.19141 z" transform="matrix(.46633 0 0 .47252 -46.476 -42.332)"/>
  </g>
  <path fill="none" stroke="url(#b)" stroke-width=".998" d="M 23.15264,35.402331 C 23.0545,35.149035 22.924012,34.86083 22.76522,34.555538 L 21.55328,35.248555 C 20.849382,34.075677 20.088378,30.676027 20.313336,28.65454 C 20.537003,26.644656 21.671118,23.657436 21.078226,21.714272 C 20.396384,19.479565 18.499596,15.198858 16.159278,14.28373 C 14.808825,13.755597 13.867858,15.418314 12.805702,17.404522 C 11.809153,19.268045 11.361039,21.656264 11.404842,23.409277 C 11.458404,25.552859 12.154071,27.598298 13.149451,29.48408 C 14.105502,31.296507 16.599743,34.90392 17.240418,36.879022 L 16.287138,37.296844 C 16.348889,37.499631 16.504177,37.651533 16.575853,37.835749 C 17.272032,39.631092 19.749562,42.824999 21.640566,41.733227 C 23.566023,40.621565 23.963133,37.493307 23.15264,35.402331 z" opacity=".538" transform="matrix(.99645 0 0 1.00781 -.891 .197)"/>
  <g fill="#729fcf" stroke="#3465a4" stroke-width="2.13">
    <path d="M 148.52832,163.19141 C 148.26758,162.52539 147.9209,161.76758 147.49902,160.96484 L 144.86621,162.08984 C 142.99609,159.00586 142.88281,152.55859 143.23242,150.4751 C 144.07129,145.4751 146.37012,141.0542 144.79492,135.94482 C 142.9834,130.06885 139.11816,120.90479 132.90039,118.49854 C 129.3125,117.10986 126.57715,120.23877 124.8125,122.98584 C 122.10742,127.19775 120.62207,132.30615 120.15137,137.26416 C 119.61719,142.87744 120.96777,148.62744 123.6123,153.58594 C 126.15234,158.35156 130.41406,162.3457 132.11621,167.53906 L 129.81836,168.52148 C 129.98242,169.05469 130.16016,169.57031 130.35059,170.05469 C 132.2002,174.77539 138.41797,184.19141 144.86328,181 C 151.42285,177.75 150.68164,168.68945 148.52832,163.19141 z" transform="matrix(-.46632 0 0 .47252 94.475 -52.332)"/>
    <path d="M 148.52832,163.19141 C 148.26758,162.52539 147.9209,161.76758 147.49902,160.96484 L 144.86621,162.08984 C 142.99609,159.00586 142.88281,152.55859 143.23242,150.4751 C 144.07129,145.4751 146.37012,141.0542 144.79492,135.94482 C 142.9834,130.06885 139.11816,120.90479 132.90039,118.49854 C 129.3125,117.10986 126.57715,120.23877 124.8125,122.98584 C 122.10742,127.19775 120.62207,132.30615 120.15137,137.26416 C 119.61719,142.87744 120.96777,148.62744 123.6123,153.58594 C 126.15234,158.35156 130.41406,162.3457 132.11621,167.53906 L 129.81836,168.52148 C 129.98242,169.05469 130.16016,169.57031 130.35059,170.05469 C 132.2002,174.77539 138.41797,184.19141 144.86328,181 C 151.42285,177.75 150.68164,168.68945 148.52832,163.19141 z" transform="matrix(-.46632 0 0 .47252 94.475 -52.332)"/>
  </g>
  <path fill="none" stroke="url(#c)" stroke-width=".998" d="M 26.470988,25.768001 C 26.569128,25.514705 26.699616,25.2265 26.858408,24.921208 L 28.070348,25.614225 C 28.774246,24.441347 29.53525,21.041697 29.310292,19.02021 C 29.086625,17.010326 27.95251,14.023106 28.545402,12.079942 C 29.227244,9.8452351 31.124032,5.5645281 33.46435,4.6494001 C 34.814803,4.1212671 35.75577,5.7839841 36.817926,7.7701921 C 37.814475,9.6337151 38.262589,12.021934 38.218786,13.774947 C 38.165224,15.918529 37.469557,17.963968 36.474177,19.84975 C 35.518126,21.662177 33.023885,25.26959 32.38321,27.244692 L 33.33649,27.662514 C 33.274739,27.865301 33.119451,28.017203 33.047775,28.201419 C 32.351596,29.996762 29.874066,33.190669 27.983062,32.098897 C 26.057605,30.987235 25.660495,27.858977 26.470988,25.768001 z" opacity=".538" transform="matrix(.99643 0 0 1.0078 -.513 -.06)"/>
</svg>
